<svg width="512" height="512" viewBox="0 0 512 512" fill="none" xmlns="http://www.w3.org/2000/svg">
<g clip-path="url(#clip0)">
<path d="M451.333 341.88C426.637 341.928 402.092 338.024 378.629 330.317C367.658 326.486 355.468 329.067 346.992 337.016L300.955 371.747C251.514 346.924 211.398 306.816 186.566 257.379L220.379 212.451C228.916 203.908 231.969 191.315 228.294 179.811C220.558 156.316 216.633 131.735 216.667 107C216.667 89.327 202.34 75 184.667 75H110C92.327 75 78 89.327 78 107C78.235 313.089 245.244 480.098 451.333 480.333C469.006 480.333 483.333 466.006 483.333 448.333V373.88C483.333 356.207 469.006 341.88 451.333 341.88Z" fill="white"/>
</g>
<defs>
<clipPath id="clip0">
<rect width="405.333" height="405.333" fill="white" transform="translate(78 75)"/>
</clipPath>
</defs>
</svg>
