<svg width="51" height="21" viewBox="0 0 51 21" fill="none" xmlns="http://www.w3.org/2000/svg">
<path d="M25.1484 0.0310214C25.3824 0.0103805 25.6176 0.0103805 25.8516 0.0310213L47.3516 1.92808C49.4164 2.11027 51 3.83972 51 5.9126V15.2284C51 17.3463 49.3491 19.0971 47.2349 19.2215L25.5 20.5L3.76511 19.2215C1.65086 19.0971 0 17.3463 0 15.2284V10.0179V5.9126C0 3.83972 1.58356 2.11027 3.64842 1.92808L25.1484 0.0310214Z" fill="#FF6347"/>
<path d="M7.916 7.986V8.91C7.916 9.134 7.82733 9.26933 7.65 9.316L3.436 10.422L7.65 11.528C7.82733 11.5653 7.916 11.7007 7.916 11.934V12.844C7.916 13.0493 7.804 13.1193 7.58 13.054L2.344 11.36C2.092 11.276 1.966 11.0893 1.966 10.8V10.044C1.966 9.75467 2.092 9.568 2.344 9.484L7.58 7.79C7.804 7.706 7.916 7.77133 7.916 7.986ZM38.0231 15H36.9451C36.7211 15 36.6464 14.902 36.7211 14.706C37.0198 13.9407 37.5518 12.5407 38.3171 10.506C39.0824 8.47133 39.6144 7.06667 39.9131 6.292C39.9971 6.096 40.1231 5.998 40.2911 5.998H41.3691C41.5931 5.998 41.6678 6.096 41.5931 6.292L38.4011 14.706C38.3264 14.902 38.2004 15 38.0231 15ZM43.0096 8.91V7.986C43.0096 7.77133 43.1216 7.706 43.3456 7.79L48.5816 9.484C48.8336 9.568 48.9596 9.75467 48.9596 10.044V10.8C48.9596 11.0893 48.8336 11.276 48.5816 11.36L43.3456 13.054C43.1216 13.1193 43.0096 13.0493 43.0096 12.844V11.934C43.0096 11.7007 43.0983 11.5653 43.2756 11.528L47.4896 10.422L43.2756 9.316C43.0983 9.26933 43.0096 9.134 43.0096 8.91Z" fill="#000058"/>
<path d="M12.3607 15H9.70067C9.51401 15 9.42067 14.902 9.42067 14.706V13.81C9.42067 13.7073 9.43934 13.6373 9.47667 13.6C9.51401 13.5533 9.58867 13.53 9.70067 13.53H12.0387C12.496 13.53 12.7247 13.39 12.7247 13.11V13.04C12.7247 12.816 12.5333 12.6013 12.1507 12.396L10.7647 11.626C10.2887 11.3833 9.93867 11.122 9.71467 10.842C9.49067 10.562 9.37867 10.2027 9.37867 9.764C9.37867 9.11067 9.55134 8.63 9.89667 8.322C10.242 8.014 10.7833 7.86 11.5207 7.86H13.8587C14.0453 7.86 14.1387 7.958 14.1387 8.154V9.064C14.1387 9.16667 14.12 9.24133 14.0827 9.288C14.0453 9.32533 13.9707 9.344 13.8587 9.344H11.9127C11.4553 9.344 11.2267 9.46067 11.2267 9.694V9.764C11.2267 9.96933 11.4273 10.1793 11.8287 10.394L13.2427 11.234C13.728 11.4953 14.0687 11.766 14.2647 12.046C14.4607 12.3167 14.5587 12.676 14.5587 13.124C14.5587 14.3747 13.826 15 12.3607 15ZM18.3733 15H17.9113C17.1927 15 16.6467 14.804 16.2733 14.412C15.9093 14.02 15.7273 13.4553 15.7273 12.718V8.154C15.7273 7.958 15.8253 7.86 16.0213 7.86H17.2113C17.4073 7.86 17.5053 7.958 17.5053 8.154V12.634C17.5053 12.9327 17.566 13.1473 17.6873 13.278C17.818 13.3993 18.028 13.46 18.3173 13.46H18.8353C19.4793 13.46 19.8013 13.1053 19.8013 12.396V8.154C19.8013 7.958 19.8993 7.86 20.0953 7.86H21.2713C21.4767 7.86 21.5793 7.958 21.5793 8.154V14.706C21.5793 14.902 21.4767 15 21.2713 15H20.0953C19.8993 15 19.8013 14.902 19.8013 14.706V14.244H19.7453C19.6427 14.496 19.4607 14.6873 19.1993 14.818C18.938 14.9393 18.6627 15 18.3733 15ZM27.2135 7.86H28.5715C28.6835 7.86 28.7581 7.89267 28.7955 7.958C28.8328 8.02333 28.8188 8.10733 28.7535 8.21L26.8915 11.276V11.332L28.8375 14.65C28.8935 14.7433 28.8981 14.8273 28.8515 14.902C28.8048 14.9673 28.7208 15 28.5995 15H27.3955C27.2368 15 27.1201 14.9813 27.0455 14.944C26.9801 14.9067 26.9101 14.8273 26.8355 14.706L25.0575 11.584C24.9735 11.4347 24.9735 11.2807 25.0575 11.122L26.7375 8.14C26.8401 7.95333 26.9988 7.86 27.2135 7.86ZM24.6095 15H23.4195C23.2235 15 23.1255 14.902 23.1255 14.706V5.452C23.1255 5.256 23.2235 5.158 23.4195 5.158H24.6095C24.8055 5.158 24.9035 5.256 24.9035 5.452V14.706C24.9035 14.902 24.8055 15 24.6095 15ZM31.213 15H30.023C29.827 15 29.729 14.902 29.729 14.706V5.452C29.729 5.256 29.827 5.158 30.023 5.158H31.213C31.409 5.158 31.507 5.256 31.507 5.452V8.616H31.563C31.7683 8.112 32.2257 7.86 32.935 7.86H33.383C34.8483 7.86 35.581 8.62067 35.581 10.142V14.706C35.581 14.902 35.4783 15 35.273 15H34.097C33.901 15 33.803 14.902 33.803 14.706V10.226C33.803 9.92733 33.7377 9.71733 33.607 9.596C33.4857 9.46533 33.2757 9.4 32.977 9.4H32.473C31.829 9.4 31.507 9.75467 31.507 10.464V14.706C31.507 14.902 31.409 15 31.213 15Z" fill="white"/>
</svg>
