<svg width="612" height="612" viewBox="0 0 612 612" fill="none" xmlns="http://www.w3.org/2000/svg">
<g clip-path="url(#clip0)">
<path d="M306 149.341C219.618 149.341 149.339 219.619 149.339 306.002C149.339 392.384 219.617 462.662 306 462.662C392.383 462.662 462.66 392.384 462.66 306.002C462.66 219.618 392.382 149.341 306 149.341Z" fill="#F39C12"/>
<path d="M274.194 117.278H337.806C342.838 117.278 347.162 115.177 349.669 111.515C352.177 107.853 352.569 103.062 350.748 98.369L315.749 8.25701C312.96 1.07301 308.444 0.00100708 306 0.00100708C303.556 0.00100708 299.04 1.07401 296.251 8.25601L261.251 98.37C259.43 103.062 259.824 107.852 262.33 111.515C264.837 115.178 269.162 117.278 274.194 117.278Z" fill="#F39C12"/>
<path d="M337.806 494.723H274.194C269.162 494.723 264.837 496.825 262.331 500.487C259.825 504.15 259.431 508.94 261.252 513.632L296.251 603.746C299.04 610.928 303.556 612 306 612C308.444 612 312.96 610.928 315.749 603.746L350.748 513.631C352.569 508.941 352.177 504.151 349.669 500.487C347.162 496.825 342.838 494.723 337.806 494.723Z" fill="#F39C12"/>
<path d="M127.54 190.824C129.952 196.301 134.568 199.57 139.888 199.57C143.532 199.57 147.145 197.962 150.062 195.044L195.043 150.064C198.601 146.506 200.173 141.962 199.355 137.598C198.536 133.236 195.427 129.57 190.823 127.542L102.356 88.569C100.123 87.586 98.02 87.087 96.106 87.087C92.905 87.087 90.147 88.502 88.538 90.969C87.181 93.05 86.084 96.716 88.569 102.358L127.54 190.824Z" fill="#F39C12"/>
<path d="M484.46 421.178C482.048 415.701 477.433 412.432 472.114 412.432C468.469 412.432 464.855 414.041 461.937 416.959L416.956 461.939C413.398 465.498 411.826 470.043 412.644 474.405C413.462 478.767 416.573 482.433 421.176 484.46L509.642 523.434C511.875 524.417 513.978 524.916 515.892 524.916C519.093 524.916 521.851 523.499 523.46 521.034C524.818 518.951 525.915 515.286 523.43 509.645L484.46 421.178Z" fill="#F39C12"/>
<path d="M461.937 195.044C464.855 197.962 468.469 199.57 472.113 199.57C477.432 199.57 482.047 196.301 484.461 190.824L523.433 102.359C525.919 96.716 524.822 93.051 523.464 90.97C521.855 88.503 519.097 87.088 515.896 87.088C513.982 87.088 511.879 87.587 509.645 88.571L421.179 127.541C416.575 129.57 413.464 133.235 412.647 137.598C411.829 141.961 413.401 146.506 416.959 150.064L461.937 195.044Z" fill="#F39C12"/>
<path d="M150.063 416.959C147.145 414.041 143.531 412.432 139.886 412.432C134.567 412.432 129.952 415.701 127.54 421.178L88.568 509.643C86.082 515.286 87.179 518.951 88.537 521.033C90.146 523.499 92.905 524.915 96.105 524.915C98.019 524.915 100.122 524.416 102.356 523.431L190.822 484.459C195.426 482.431 198.537 478.765 199.354 474.403C200.172 470.041 198.601 465.496 195.042 461.937L150.063 416.959Z" fill="#F39C12"/>
<path d="M603.745 296.251L513.634 261.255C511.692 260.5 509.738 260.118 507.828 260.118C500.235 260.118 494.724 266.039 494.724 274.196L494.725 337.809C494.725 345.966 500.236 351.887 507.829 351.887C509.741 351.887 511.695 351.505 513.635 350.751L603.747 315.752C610.929 312.962 612.001 308.446 612.001 306.001C612.001 303.558 610.926 299.04 603.745 296.251Z" fill="#F39C12"/>
<path d="M104.173 351.886C111.767 351.886 117.279 345.965 117.279 337.808V274.195C117.279 266.038 111.768 260.117 104.173 260.117C102.261 260.117 100.309 260.499 98.368 261.253L8.255 296.251C1.073 299.04 0 303.556 0 306.001C0 308.445 1.072 312.961 8.255 315.753L98.366 350.749C100.308 351.503 102.261 351.886 104.173 351.886Z" fill="#F39C12"/>
</g>
<defs>
<clipPath id="clip0">
<rect width="612" height="612" fill="white"/>
</clipPath>
</defs>
</svg>
